<svg width="121" height="30" viewBox="0 0 121 30" fill="none" xmlns="http://www.w3.org/2000/svg">
<g clip-path="url(#clip0_4_59)">
<path d="M20.8926 23.6409C20.3618 21.6119 19.8813 19.241 19.4513 16.528C18.9985 13.5751 18.7033 10.6004 18.567 7.61652H23.2874C23.3094 8.40788 23.3377 9.27745 23.3786 10.2221C23.4196 11.1667 23.4731 12.0988 23.5328 13.0716C23.5926 14.0444 23.665 14.9484 23.7468 15.8586C23.8287 16.7688 23.9199 17.579 24.0238 18.3078C24.4748 17.701 24.9804 16.9503 25.5406 16.0557C26.1008 15.1611 26.6473 14.2227 27.1802 13.2405C27.7088 12.273 28.1945 11.3002 28.6372 10.3222C29.0431 9.4469 29.391 8.54623 29.6788 7.6259H34.522C33.9541 9.14681 33.2941 10.6322 32.5457 12.0738C31.7548 13.5982 30.9156 15.0704 30.0281 16.4905C29.1407 17.9105 28.2249 19.2378 27.2809 20.4723C26.3515 21.711 25.4881 22.7672 24.6909 23.6409H20.8926Z" fill="#00132A"/>
<path d="M33.0933 17.3663C33.0908 16.0754 33.3254 14.7949 33.7856 13.5877C34.2281 12.3971 34.8874 11.2975 35.7304 10.3441C36.5831 9.38715 37.6199 8.60968 38.7798 8.05755C40.0184 7.47094 41.3762 7.17555 42.7481 7.19424C43.4248 7.19035 44.0976 7.296 44.7401 7.50703C45.3295 7.6962 45.8766 7.99678 46.3513 8.39224C46.8103 8.77835 47.1769 9.26135 47.4244 9.80606C47.6871 10.4066 47.817 11.0562 47.8052 11.711C47.8379 12.7287 47.5722 13.7339 47.0405 14.6043C46.5075 15.4192 45.7742 16.0856 44.91 16.5405C43.8974 17.0722 42.805 17.4376 41.675 17.6228C40.324 17.8547 38.9549 17.9667 37.5839 17.9575C37.7256 18.8114 38.0403 19.4151 38.528 19.7685C39.0158 20.122 39.7868 20.3034 40.8127 20.3034C41.4803 20.3022 42.1466 20.2457 42.8047 20.1345C43.4492 20.0286 44.0816 19.8599 44.6929 19.6309L45.0296 23.1967C44.3132 23.4592 43.5765 23.6631 42.8268 23.8067C41.8734 23.9944 40.9034 24.0856 39.9316 24.0788C38.8392 24.1087 37.7513 23.9281 36.728 23.5471C35.9363 23.246 35.2262 22.7655 34.6542 22.1438C34.0823 21.522 33.6641 20.7762 33.4331 19.9656C33.1918 19.1205 33.0773 18.2446 33.0933 17.3663ZM42.0148 10.7976C40.9914 10.7859 40.0048 11.1772 39.2707 11.8861C38.4568 12.6803 37.9151 13.709 37.7224 14.8264C38.7515 14.8138 39.7773 14.7091 40.7875 14.5136C41.4179 14.3929 42.0274 14.1821 42.597 13.888C42.9539 13.7129 43.2515 13.4378 43.453 13.0966C43.592 12.8341 43.6664 12.5425 43.6701 12.2459C43.6701 11.2606 43.1131 10.7851 42.0148 10.7851V10.7976Z" fill="#00132A"/>
<path d="M50.6941 8.34846C51.0403 8.24524 51.4242 8.1295 51.8428 7.99813C52.2613 7.86676 52.7302 7.74477 53.2526 7.63216C53.8297 7.51089 54.4126 7.41902 54.9992 7.3569C55.7309 7.2808 56.4663 7.2453 57.202 7.25055C59.6126 7.25055 61.2679 7.94078 62.1679 9.32125C63.0679 10.7017 63.22 12.591 62.6242 14.9891L60.5409 23.6409H55.9653L57.9888 15.1705C58.1115 14.645 58.2059 14.132 58.2783 13.6315C58.3513 13.1982 58.346 12.7555 58.2625 12.3241C58.1895 11.9621 57.9886 11.6381 57.6961 11.4107C57.2927 11.1461 56.8121 11.0228 56.3303 11.0604C55.7226 11.0612 55.1165 11.122 54.5208 11.2418L51.547 23.6409H46.9839L50.6941 8.34846Z" fill="#00132A"/>
<path d="M67.31 3.62528L72.065 2.89334L70.9007 7.61652H75.9893L75.0704 11.3325H70.0069L68.6569 16.9378C68.5414 17.367 68.4646 17.8056 68.4272 18.2484C68.391 18.606 68.4439 18.9669 68.5813 19.2993C68.7218 19.6019 68.9662 19.8447 69.2705 19.9844C69.6962 20.1662 70.1578 20.2496 70.6206 20.2283C71.0992 20.2303 71.5768 20.1842 72.0461 20.0907C72.5195 19.996 72.9854 19.8674 73.4402 19.706L73.777 23.1811C73.1259 23.4189 72.4606 23.6164 71.7849 23.7723C70.948 23.947 70.0942 24.0288 69.2391 24.0163C67.8292 24.0163 66.7362 23.8077 65.9599 23.3907C65.2309 23.0237 64.6477 22.4231 64.3047 21.686C63.9676 20.8999 63.8231 20.0454 63.883 19.193C63.9321 18.1965 64.0754 17.2069 64.3109 16.2371L67.31 3.62528Z" fill="#00132A"/>
<path d="M79.5957 16.7251C79.4918 17.1817 79.388 17.629 79.281 18.0638C79.1803 18.4734 79.1285 18.8934 79.1268 19.315C79.0929 19.918 79.2758 20.5133 79.6429 20.9947C79.9848 21.4117 80.6258 21.6703 81.5656 21.7704L80.9079 24.1351C80.1654 24.1353 79.4288 24.0029 78.7334 23.7441C78.1899 23.5413 77.6986 23.2208 77.2952 22.8058C76.9265 22.4058 76.6542 21.9277 76.4991 21.4076C76.3263 20.8322 76.2415 20.2344 76.2473 19.634C76.2503 19.1352 76.2923 18.6374 76.3732 18.1451C76.455 17.6259 76.5714 17.0848 76.7162 16.528L80.4925 0.516109L83.5199 0L79.5957 16.7251Z" fill="#00132A"/>
<path d="M85.8329 24.1257H82.9251L86.8336 7.96059H89.7414L85.8329 24.1257Z" fill="#00132A"/>
<path d="M89.2096 5.03598C88.7675 5.05025 88.3369 4.89452 88.0074 4.6012C87.8434 4.44556 87.7152 4.25653 87.6316 4.04705C87.5479 3.83758 87.5108 3.61261 87.5228 3.38756C87.5084 3.09722 87.5571 2.80719 87.6657 2.53728C87.7743 2.26737 87.9403 2.02394 88.1522 1.82359C88.5267 1.45768 89.0306 1.25219 89.5557 1.25118C90.0048 1.24037 90.4409 1.40164 90.7736 1.7016C90.9429 1.86193 91.0752 2.05677 91.1616 2.27274C91.248 2.48871 91.2863 2.7207 91.274 2.95278C91.2862 3.23568 91.235 3.51775 91.1239 3.77852C91.0129 4.0393 90.8448 4.27223 90.632 4.46044C90.2478 4.82373 89.7398 5.02931 89.2096 5.03598Z" fill="#00132A"/>
<path d="M110.879 7.96059C110.735 8.58618 110.492 9.40569 110.159 10.4285C109.825 11.4514 109.413 12.5805 108.925 13.8036C108.437 15.0266 107.865 16.3059 107.22 17.6447C106.576 18.9752 105.856 20.2671 105.061 21.5139C104.769 20.415 104.514 19.2681 104.296 18.0732C104.078 16.8783 103.89 15.6814 103.733 14.4823C103.575 13.2895 103.456 12.1426 103.374 11.0416C103.289 9.93432 103.235 8.91148 103.217 7.98249H95.409L95.7552 6.58117C95.8848 6.01028 96.0574 5.44985 96.2713 4.9046C96.451 4.43196 96.7214 3.99853 97.0675 3.6284C97.4098 3.26965 97.8264 2.98898 98.2885 2.80576C98.8456 2.58887 99.44 2.48261 100.038 2.49296C100.644 2.47159 101.25 2.53477 101.838 2.68064C102.132 2.76381 102.419 2.86835 102.697 2.99343L103.849 0.685019C103.376 0.4737 102.879 0.317314 102.37 0.218957C101.687 0.0696118 100.989 -0.00382396 100.29 2.05613e-06C99.3018 -0.0218562 98.3171 0.125211 97.379 0.434785C96.5975 0.703993 95.8798 1.12984 95.2706 1.68596C94.653 2.26472 94.153 2.956 93.7978 3.72224C93.3895 4.60969 93.0731 5.53617 92.8537 6.48733L89.3732 20.9227C89.0805 22.1239 88.8477 23.1123 88.6683 23.8599C88.5127 24.5438 88.3022 25.2143 88.0389 25.8649C87.7907 26.4595 87.4917 27.0319 87.1452 27.5759C86.7927 28.1358 86.3018 28.827 85.6755 29.6278L88.2403 30C88.8949 29.3657 89.4774 28.6619 89.9774 27.9012C90.3983 27.2415 90.7445 26.5376 91.0096 25.8023C91.2841 25.0362 91.5101 24.2537 91.6862 23.4595C91.875 22.6306 92.0953 21.6891 92.3439 20.6287L94.8457 10.3722H100.388C100.543 12.4012 100.795 14.4114 101.143 16.4029C101.608 19.0809 102.239 21.7279 103.031 24.3291C102.355 25.2118 101.549 25.9879 100.639 26.6312C99.7292 27.2396 98.6517 27.5522 97.5553 27.5258C97.1522 27.5298 96.7509 27.4718 96.3657 27.3538C96.0615 27.2656 95.7758 27.1236 95.5223 26.9346L94.5216 29.2993C94.86 29.5103 95.2295 29.6676 95.6167 29.7654C96.1461 29.9133 96.6939 29.9859 97.2437 29.9812C98.3003 29.9972 99.3503 29.8125 100.337 29.437C101.251 29.0762 102.101 28.5725 102.855 27.945C103.648 27.2782 104.366 26.5272 104.995 25.7054C105.664 24.8337 106.331 23.913 106.996 22.9434C107.879 21.626 108.688 20.2612 109.419 18.8552C110.158 17.4351 110.825 16.0463 111.421 14.6888C112.017 13.3312 112.522 12.0676 112.938 10.8977C113.357 9.7237 113.68 8.74466 113.907 7.96059H110.879Z" fill="#00132A"/>
<path d="M118.372 13.1811C117.853 13.1811 117.345 13.0279 116.912 12.7409C116.48 12.4539 116.143 12.046 115.945 11.5688C115.746 11.0915 115.694 10.5664 115.795 10.0597C115.896 9.5531 116.147 9.08772 116.514 8.72245C116.882 8.35718 117.35 8.10842 117.86 8.00765C118.369 7.90687 118.898 7.95859 119.378 8.15627C119.858 8.35396 120.268 8.68872 120.557 9.11823C120.846 9.54774 121 10.0527 121 10.5693C121 11.262 120.723 11.9263 120.23 12.4161C119.738 12.9059 119.069 13.1811 118.372 13.1811ZM118.372 8.44229C117.946 8.43296 117.527 8.55 117.169 8.77846C116.81 9.00692 116.528 9.33643 116.359 9.72493C116.189 10.1134 116.14 10.5433 116.218 10.9596C116.295 11.376 116.496 11.7599 116.794 12.0624C117.092 12.3649 117.474 12.5722 117.891 12.6579C118.308 12.7436 118.742 12.7038 119.136 12.5436C119.53 12.3834 119.868 12.11 120.105 11.7583C120.342 11.4066 120.469 10.9927 120.468 10.5693C120.472 10.2926 120.421 10.0179 120.318 9.76105C120.215 9.50416 120.061 9.27019 119.866 9.07267C119.671 8.87516 119.439 8.71802 119.182 8.61035C118.926 8.50269 118.651 8.44663 118.372 8.44542V8.44229ZM118.923 11.9769L118.344 10.8602H117.979V11.9769H117.457V9.16171H118.523C118.64 9.15711 118.756 9.17544 118.865 9.21564C118.974 9.25583 119.074 9.3171 119.159 9.39591C119.244 9.47472 119.313 9.5695 119.361 9.67479C119.409 9.78009 119.435 9.8938 119.439 10.0094C119.441 10.1801 119.388 10.3469 119.287 10.4851C119.186 10.6232 119.043 10.7251 118.879 10.7757L119.508 11.9643L118.923 11.9769ZM118.457 9.5965H117.979V10.4473H118.457C118.571 10.4473 118.68 10.4025 118.76 10.3227C118.84 10.2429 118.885 10.1347 118.885 10.0219C118.885 9.90907 118.84 9.80087 118.76 9.72109C118.68 9.64132 118.571 9.5965 118.457 9.5965Z" fill="#00132A"/>
<path d="M6.92328 17.7979C7.1058 17.7979 7.28203 17.7979 7.45196 17.7979C8.63638 17.7855 9.81799 17.6809 10.986 17.4851C12.1122 17.3025 13.2007 16.938 14.2085 16.406C15.069 15.9525 15.7998 15.2896 16.3326 14.4792C16.8707 13.6065 17.1398 12.5963 17.1068 11.5734C17.1176 10.9214 16.9866 10.2748 16.7229 9.67783C16.4777 9.1326 16.1119 8.64934 15.6529 8.264C15.1805 7.87176 14.6367 7.57336 14.0511 7.38505C13.4106 7.17453 12.74 7.06888 12.0654 7.07226C10.6969 7.05763 9.34341 7.35624 8.10967 7.94495C6.95294 8.495 5.91917 9.27043 5.06973 10.2252C4.22854 11.1724 3.57031 12.2656 3.12806 13.4501C3.02736 13.7191 2.94239 13.9912 2.86372 14.2602C1.86252 14.0342 0.898438 13.6688 0 13.1749C0 13.1749 1.25878 17.7979 6.92328 17.7979ZM8.58801 11.7704C8.94901 11.4155 9.37699 11.135 9.84737 10.945C10.3178 10.755 10.8213 10.6592 11.329 10.6631C12.4283 10.6631 12.978 11.149 12.978 12.1207C12.9753 12.4172 12.9019 12.7087 12.764 12.9715C12.5644 13.3131 12.2677 13.5884 11.9112 13.7629C11.3445 14.0589 10.7369 14.2697 10.108 14.3885C9.10202 14.5839 8.08036 14.6886 7.05545 14.7013C7.24749 13.5878 7.78693 12.5625 8.59745 11.7704H8.58801Z" fill="#77C157"/>
<path d="M10.0199 20.4911C9.425 20.4551 8.85051 20.2623 8.35548 19.9325C7.86046 19.6026 7.46278 19.1476 7.20335 18.6143C5.12322 18.8552 3.58122 18.3891 2.45776 17.7041C2.49009 18.413 2.60735 19.1155 2.80707 19.7967C3.0379 20.5828 3.43969 21.3089 3.98403 21.9237C4.56506 22.5594 5.2869 23.052 6.09248 23.3625C7.1119 23.7462 8.19701 23.9279 9.28663 23.8974C10.7688 23.8974 16.3956 22.9215 17.4278 16.6813C15.3445 20.0188 12.4367 20.7476 10.0199 20.4911Z" fill="#77C157"/>
</g>
<defs>
<clipPath id="clip0_4_59">
<rect width="121" height="30" fill="white"/>
</clipPath>
</defs>
</svg>

