<svg width="89" height="22" viewBox="0 0 89 22" fill="none" xmlns="http://www.w3.org/2000/svg">
<path d="M15.3673 17.3367C14.9769 15.8488 14.6235 14.11 14.3072 12.1205C13.9741 9.95507 13.757 7.77366 13.6567 5.58545H17.1288C17.145 6.16578 17.1658 6.80347 17.1959 7.4962C17.226 8.18893 17.2653 8.87249 17.3093 9.58587C17.3533 10.2992 17.4065 10.9622 17.4667 11.6297C17.5269 12.2972 17.594 12.8913 17.6704 13.4257C18.0022 12.9807 18.3741 12.4302 18.7861 11.7742C19.1981 11.1181 19.6001 10.43 19.9921 9.70973C20.3809 9.00018 20.7382 8.2868 21.0638 7.5696C21.3623 6.92773 21.6182 6.26724 21.8299 5.59233H25.3922C24.9745 6.70767 24.4891 7.79693 23.9386 8.85414C23.3568 9.97199 22.7396 11.0516 22.0869 12.093C21.4341 13.1344 20.7605 14.1077 20.0661 15.013C19.3825 15.9214 18.7475 16.6959 18.1611 17.3367H15.3673Z" fill="#CECECE"/>
<path d="M24.3413 12.7354C24.3395 11.7887 24.512 10.8497 24.8505 9.96444C25.176 9.09129 25.6609 8.28496 26.281 7.58575C26.9082 6.88401 27.6708 6.31387 28.5239 5.90897C29.435 5.4788 30.4337 5.26217 31.4428 5.27588C31.9405 5.27303 32.4354 5.3505 32.908 5.50526C33.3415 5.64399 33.7439 5.86441 34.0931 6.15441C34.4307 6.43756 34.7004 6.79176 34.8824 7.19122C35.0756 7.63162 35.1711 8.10801 35.1625 8.58815C35.1865 9.33449 34.9911 10.0717 34.6 10.7099C34.2079 11.3075 33.6686 11.7962 33.033 12.1298C32.2881 12.5197 31.4846 12.7877 30.6535 12.9235C29.6598 13.0936 28.6528 13.1757 27.6444 13.1689C27.7485 13.7951 27.98 14.2378 28.3388 14.497C28.6975 14.7562 29.2646 14.8893 30.0192 14.8893C30.5103 14.8884 31.0004 14.8469 31.4844 14.7654C31.9585 14.6877 32.4236 14.564 32.8733 14.3961L33.1209 17.011C32.594 17.2035 32.0521 17.3531 31.5006 17.4583C30.7994 17.596 30.0859 17.6628 29.3711 17.6579C28.5676 17.6798 27.7675 17.5474 27.0148 17.268C26.4325 17.0472 25.9102 16.6948 25.4894 16.2389C25.0687 15.7829 24.7612 15.236 24.5913 14.6415C24.4138 14.0218 24.3296 13.3795 24.3413 12.7354ZM30.9034 7.91836C30.1506 7.90975 29.425 8.19673 28.885 8.71661C28.2864 9.29902 27.888 10.0534 27.7462 10.8728C28.5031 10.8635 29.2577 10.7868 30.0007 10.6434C30.4644 10.5549 30.9126 10.4003 31.3317 10.1846C31.5942 10.0562 31.813 9.8545 31.9613 9.60431C32.0635 9.41177 32.1183 9.19795 32.121 8.9804C32.121 8.25784 31.7113 7.90918 30.9034 7.90918V7.91836Z" fill="#CECECE"/>
<path d="M37.2874 6.12228C37.542 6.04658 37.8244 5.96171 38.1322 5.86537C38.4401 5.76903 38.785 5.67957 39.1692 5.59699C39.5937 5.50806 40.0225 5.44068 40.4539 5.39514C40.9921 5.33933 41.533 5.31329 42.0742 5.31715C43.8472 5.31715 45.0647 5.82331 45.7268 6.83565C46.3888 7.84799 46.5006 9.23346 46.0624 10.992L44.5301 17.3367H41.1645L42.6528 11.1251C42.7431 10.7397 42.8126 10.3635 42.8658 9.99653C42.9195 9.67879 42.9156 9.3541 42.8542 9.03772C42.8005 8.7723 42.6527 8.5347 42.4376 8.36792C42.1409 8.17389 41.7874 8.08348 41.433 8.11101C40.986 8.11165 40.5402 8.15622 40.102 8.24406L37.9147 17.3367H34.5583L37.2874 6.12228Z" fill="#CECECE"/>
<path d="M49.5091 2.65858L53.0066 2.12183L52.1501 5.58549H55.893L55.2171 8.31054H51.4927L50.4997 12.4211C50.4148 12.7358 50.3583 13.0575 50.3308 13.3822C50.3042 13.6444 50.3431 13.9091 50.4442 14.1529C50.5475 14.3747 50.7272 14.5528 50.9511 14.6552C51.2642 14.7886 51.6037 14.8497 51.9441 14.8342C52.2962 14.8356 52.6475 14.8018 52.9927 14.7332C53.3409 14.6637 53.6836 14.5694 54.0181 14.4511L54.2658 16.9995C53.7869 17.1739 53.2975 17.3187 52.8005 17.4331C52.185 17.5612 51.5569 17.6212 50.928 17.612C49.891 17.612 49.087 17.4591 48.5161 17.1532C47.9798 16.8841 47.5509 16.4437 47.2985 15.9031C47.0506 15.3266 46.9443 14.7 46.9884 14.0749C47.0245 13.3442 47.1299 12.6184 47.3031 11.9072L49.5091 2.65858Z" fill="#CECECE"/>
<path d="M58.5456 12.265C58.4692 12.5999 58.3928 12.928 58.3141 13.2468C58.2401 13.5472 58.202 13.8551 58.2007 14.1643C58.1758 14.6065 58.3103 15.0431 58.5803 15.3961C58.8318 15.7019 59.3032 15.8916 59.9946 15.965L59.5108 17.6991C58.9646 17.6992 58.4229 17.6021 57.9113 17.4124C57.5116 17.2636 57.1502 17.0286 56.8535 16.7242C56.5823 16.4309 56.382 16.0803 56.2679 15.6989C56.1409 15.277 56.0784 14.8386 56.0827 14.3983C56.0849 14.0325 56.1159 13.6674 56.1753 13.3064C56.2355 12.9257 56.3211 12.5288 56.4276 12.1205L59.2053 0.37848L61.432 0L58.5456 12.265Z" fill="#CECECE"/>
<path d="M63.1334 17.6922H60.9946L63.8695 5.83777H66.0083L63.1334 17.6922Z" fill="#CECECE"/>
<path d="M65.617 3.69313C65.2919 3.70359 64.9751 3.58939 64.7328 3.37429C64.6122 3.26015 64.5179 3.12153 64.4564 2.96792C64.3948 2.8143 64.3675 2.64933 64.3763 2.48429C64.3657 2.27137 64.4016 2.05868 64.4815 1.86075C64.5614 1.66282 64.6834 1.4843 64.8393 1.33738C65.1148 1.06905 65.4854 0.918353 65.8716 0.917611C66.2019 0.90968 66.5227 1.02795 66.7674 1.24792C66.8919 1.3655 66.9893 1.50838 67.0528 1.66675C67.1163 1.82513 67.1445 1.99525 67.1355 2.16545C67.1445 2.37291 67.1068 2.57976 67.0251 2.77099C66.9434 2.96223 66.8198 3.13305 66.6633 3.27107C66.3807 3.53748 66.007 3.68824 65.617 3.69313Z" fill="#CECECE"/>
<path d="M81.556 5.83786C81.4495 6.29662 81.2713 6.8976 81.0259 7.64768C80.7805 8.39776 80.4773 9.22582 80.1185 10.1227C79.7598 11.0196 79.3385 11.9578 78.864 12.9395C78.391 13.9152 77.8608 14.8626 77.2761 15.777C77.0616 14.9711 76.8741 14.13 76.7136 13.2538C76.5531 12.3775 76.415 11.4998 76.2993 10.6205C76.1836 9.74576 76.0956 8.90469 76.0354 8.09727C75.9729 7.28525 75.9336 6.53518 75.9197 5.85391H70.1769L70.4315 4.82628C70.5269 4.40763 70.6538 3.99665 70.8112 3.5968C70.9434 3.25019 71.1422 2.93235 71.3968 2.66092C71.6486 2.39783 71.955 2.19201 72.2949 2.05765C72.7046 1.8986 73.1419 1.82067 73.5818 1.82826C74.0275 1.81259 74.4732 1.85892 74.9058 1.96589C75.1219 2.02688 75.3331 2.10355 75.5378 2.19527L76.3849 0.502438C76.0368 0.34747 75.6717 0.232787 75.297 0.160659C74.7946 0.0511392 74.2815 -0.0027137 73.767 9.20432e-05C73.0402 -0.0159374 72.3159 0.0919117 71.6259 0.318933C71.0511 0.516352 70.5232 0.828643 70.0751 1.23646C69.6208 1.66088 69.2531 2.16783 68.9918 2.72973C68.6915 3.38053 68.4588 4.05994 68.2974 4.75747L65.7373 15.3434C65.5221 16.2243 65.3508 16.9491 65.2189 17.4973C65.1044 17.9989 64.9496 18.4906 64.7559 18.9677C64.5733 19.4037 64.3534 19.8235 64.0985 20.2224C63.8393 20.633 63.4782 21.1399 63.0176 21.7271L64.9041 22.0001C65.3855 21.5349 65.814 21.0188 66.1818 20.4609C66.4913 19.9772 66.746 19.461 66.941 18.9218C67.1429 18.36 67.3091 17.7861 67.4386 17.2037C67.5775 16.5959 67.7396 15.9054 67.9224 15.1278L69.7626 7.60639H73.8388C73.953 9.09431 74.1381 10.5685 74.3943 12.0289C74.7366 13.9927 75.2005 15.9339 75.7831 17.8414C75.2859 18.4887 74.6928 19.0579 74.0239 19.5297C73.3546 19.9758 72.562 20.205 71.7555 20.1857C71.4591 20.1886 71.1639 20.1461 70.8806 20.0595C70.6568 19.9949 70.4467 19.8908 70.2603 19.7522L69.5242 21.4863C69.7731 21.641 70.0449 21.7563 70.3297 21.8281C70.7191 21.9365 71.122 21.9898 71.5264 21.9863C72.3036 21.9981 73.0759 21.8626 73.8017 21.5872C74.4739 21.3226 75.099 20.9533 75.6535 20.4931C76.237 20.0041 76.7649 19.4534 77.2275 18.8507C77.7197 18.2115 78.2105 17.5363 78.6996 16.8252C79.349 15.8592 79.944 14.8583 80.482 13.8272C81.0251 12.7858 81.5158 11.7674 81.9541 10.7719C82.3923 9.77634 82.7642 8.84964 83.0698 7.99175C83.3784 7.1308 83.616 6.41284 83.7827 5.83786H81.556Z" fill="#CECECE"/>
<path d="M87.0673 9.66625C86.685 9.66625 86.3113 9.55391 85.9935 9.34345C85.6757 9.13299 85.4279 8.83386 85.2816 8.48388C85.1354 8.13389 85.0971 7.74878 85.1717 7.37725C85.2462 7.00571 85.4303 6.66443 85.7006 6.39656C85.9709 6.1287 86.3153 5.94628 86.6902 5.87237C87.0651 5.79847 87.4538 5.8364 87.8069 5.98137C88.1601 6.12634 88.462 6.37183 88.6743 6.6868C88.8867 7.00178 89.0001 7.37209 89.0001 7.75091C89.0001 8.25889 88.7964 8.74606 88.434 9.10526C88.0715 9.46445 87.5799 9.66625 87.0673 9.66625ZM87.0673 6.19111C86.754 6.18427 86.4458 6.2701 86.182 6.43764C85.9182 6.60518 85.7108 6.84682 85.5862 7.13172C85.4616 7.41662 85.4256 7.73185 85.4826 8.03716C85.5396 8.34247 85.6872 8.62401 85.9064 8.84584C86.1257 9.06767 86.4066 9.21972 86.7135 9.28257C87.0203 9.34543 87.3391 9.31624 87.6291 9.19873C87.9191 9.08123 88.1672 8.88074 88.3417 8.62286C88.5163 8.36498 88.6093 8.06141 88.6089 7.75091C88.6119 7.54804 88.5744 7.34659 88.4984 7.1582C88.4223 6.96982 88.3094 6.79824 88.166 6.65339C88.0227 6.50855 87.8517 6.39332 87.6631 6.31436C87.4745 6.23541 87.272 6.19429 87.0673 6.19341V6.19111ZM87.4724 8.78313L87.0465 7.96424H86.778V8.78313H86.3937V6.71869H87.1784C87.2639 6.71532 87.3492 6.72876 87.4295 6.75824C87.5097 6.78771 87.5832 6.83264 87.6459 6.89044C87.7085 6.94823 87.759 7.01774 87.7943 7.09495C87.8297 7.17217 87.8493 7.25556 87.852 7.34032C87.8537 7.4655 87.8144 7.58786 87.7402 7.68914C87.6659 7.79043 87.5606 7.8652 87.44 7.9023L87.9029 8.77395L87.4724 8.78313ZM87.1298 7.03753H86.778V7.66145H87.1298C87.2133 7.66145 87.2933 7.62858 87.3524 7.57008C87.4114 7.51158 87.4446 7.43223 87.4446 7.34949C87.4446 7.26675 87.4114 7.18741 87.3524 7.1289C87.2933 7.0704 87.2133 7.03753 87.1298 7.03753Z" fill="#CECECE"/>
<path d="M5.09233 13.0519C5.22658 13.0519 5.3562 13.0519 5.4812 13.0519C6.35238 13.0428 7.2215 12.9661 8.0806 12.8225C8.90895 12.6886 9.70961 12.4213 10.4508 12.0312C11.0838 11.6986 11.6213 11.2125 12.0133 10.6182C12.409 9.97822 12.607 9.2374 12.5827 8.48721C12.5906 8.00912 12.4943 7.53497 12.3003 7.09716C12.1199 6.69733 11.8509 6.34294 11.5133 6.06036C11.1658 5.77271 10.7659 5.55389 10.3351 5.41579C9.86401 5.26141 9.37072 5.18394 8.87454 5.18641C7.86798 5.17568 6.87243 5.39466 5.96497 5.82639C5.11414 6.22975 4.35377 6.7984 3.72897 7.49858C3.11025 8.19317 2.6261 8.99489 2.30081 9.8635C2.22674 10.0608 2.16424 10.2603 2.10637 10.4576C1.36995 10.2918 0.660835 10.0239 0 9.66165C0 9.66165 0.925878 13.0519 5.09233 13.0519ZM6.3168 8.63172C6.58233 8.37147 6.89713 8.16576 7.24311 8.02641C7.58909 7.88706 7.95944 7.81682 8.3329 7.81971C9.1415 7.81971 9.5458 8.17602 9.5458 8.88863C9.54379 9.106 9.48985 9.31981 9.3884 9.51255C9.24156 9.763 9.02333 9.96489 8.76112 10.0929C8.34433 10.31 7.89736 10.4646 7.4348 10.5516C6.69488 10.695 5.94341 10.7717 5.18954 10.781C5.3308 9.96445 5.72758 9.21255 6.32374 8.63172H6.3168Z" fill="#CECECE"/>
<path d="M7.36995 15.0269C6.9324 15.0005 6.50984 14.8591 6.14573 14.6172C5.78162 14.3753 5.48912 14.0417 5.2983 13.6506C3.76829 13.8272 2.63409 13.4855 1.80774 12.9831C1.83151 13.5029 1.91777 14.0181 2.06467 14.5177C2.23445 15.0942 2.52998 15.6267 2.93037 16.0775C3.35773 16.5436 3.88867 16.9049 4.48121 17.1326C5.23103 17.414 6.02917 17.5472 6.83063 17.5249C7.92085 17.5249 12.0595 16.8092 12.8187 12.233C11.2864 14.6805 9.14763 15.215 7.36995 15.0269Z" fill="#CECECE"/>
</svg>
