<svg width="10" height="32" viewBox="0 0 10 32" fill="none" xmlns="http://www.w3.org/2000/svg">
<path fill-rule="evenodd" clip-rule="evenodd" d="M3.26091 0.337895C1.87014 0.846721 0.631713 2.18123 0.212324 3.62344C-0.130664 4.80266 -0.114178 5.00577 0.682336 9.42759C1.13633 11.948 1.86643 16.0444 2.30439 18.5307C3.02822 22.6396 3.15687 23.0995 3.71513 23.5795C4.49841 24.2529 5.50159 24.2529 6.28487 23.5795C6.84313 23.0995 6.97178 22.6396 7.69561 18.5307C8.13358 16.0444 8.86367 11.948 9.31766 9.42759C10.1142 5.00577 10.1307 4.80266 9.78768 3.62344C9.3576 2.14432 8.11964 0.840917 6.65433 0.324431C5.41591 -0.112203 4.48076 -0.108489 3.26091 0.337895Z" fill="black"/>
<circle cx="5" cy="29" r="3" fill="black"/>
</svg>
