<svg width="22" height="21" viewBox="0 0 22 21" fill="none" xmlns="http://www.w3.org/2000/svg">
<path d="M15.95 15.1167C14.5255 16.2025 12.791 16.8041 11 16.8334C5.16671 16.8334 1.83337 10.1667 1.83337 10.1667C2.86995 8.23493 4.30765 6.54719 6.05004 5.21669M9.25004 3.70002C9.82365 3.56575 10.4109 3.49864 11 3.50002C16.8334 3.50002 20.1667 10.1667 20.1667 10.1667C19.6609 11.113 19.0576 12.004 18.3667 12.825M12.7667 11.9334C12.5378 12.179 12.2618 12.376 11.9552 12.5126C11.6485 12.6493 11.3175 12.7227 10.9818 12.7287C10.6461 12.7346 10.3127 12.6728 10.0014 12.5471C9.69009 12.4214 9.40731 12.2342 9.16991 11.9968C8.93252 11.7594 8.74537 11.4766 8.61963 11.1653C8.4939 10.8541 8.43215 10.5206 8.43807 10.1849C8.44399 9.84927 8.51746 9.51823 8.6541 9.21156C8.79074 8.9049 8.98775 8.62889 9.23337 8.40002" stroke="black" stroke-width="2" stroke-linecap="round" stroke-linejoin="round"/>
<path d="M1.83337 1L20.1667 19.3333" stroke="black" stroke-width="2" stroke-linecap="round" stroke-linejoin="round"/>
</svg>
