<svg width="21" height="16" viewBox="0 0 21 16" fill="none" xmlns="http://www.w3.org/2000/svg">
<path d="M1.49841 8.16669C1.49841 8.16669 4.83175 14.8334 10.6651 14.8334C14.7563 14.7665 18.0045 11.5851 19.8317 8.16669C19.8317 8.16669 16.4984 1.50002 10.6651 1.50002C6.62175 1.49052 3.28908 4.82961 1.49841 8.16669Z" stroke="black" stroke-width="2" stroke-linecap="round" stroke-linejoin="round"/>
<path d="M12.4317 9.93336C12.2028 10.179 11.9268 10.376 11.6201 10.5126C11.3135 10.6493 10.9824 10.7227 10.6468 10.7287C10.3111 10.7346 9.97766 10.6728 9.66636 10.5471C9.35507 10.4214 9.07229 10.2342 8.83489 9.99682C8.5975 9.75942 8.41035 9.47664 8.28461 9.16535C8.15888 8.85406 8.09713 8.52062 8.10305 8.18495C8.10897 7.84927 8.18245 7.51823 8.31909 7.21156C8.45573 6.9049 8.65273 6.6289 8.89836 6.40002" stroke="black" stroke-width="2" stroke-linecap="round" stroke-linejoin="round"/>
<path d="M8.88008 6.41442C9.10895 6.1688 9.38495 5.97179 9.69162 5.83515C9.99828 5.69851 10.3293 5.62504 10.665 5.61912C11.0007 5.61319 11.3341 5.67494 11.6454 5.80068C11.9567 5.92642 12.2395 6.11356 12.4769 6.35096C12.7143 6.58836 12.9014 6.87114 13.0272 7.18243C13.1529 7.49372 13.2146 7.82715 13.2087 8.16283C13.2028 8.49851 13.1293 8.82955 12.9927 9.13621C12.856 9.44288 12.659 9.71888 12.4134 9.94775" stroke="black" stroke-width="2" stroke-linecap="round" stroke-linejoin="round"/>
</svg>
