<svg width="25" height="25" viewBox="0 0 30 30" fill="none" xmlns="http://www.w3.org/2000/svg">
<g clip-path="url(#clip0_3_51)">
<path d="M15 30C23.2843 30 30 23.2843 30 15C30 6.71576 23.2843 3.05176e-05 15 3.05176e-05C6.71577 3.05176e-05 3.8147e-05 6.71576 3.8147e-05 15C3.8147e-05 23.2843 6.71577 30 15 30Z" fill="#3C5A9A"/>
<path d="M19.8774 4.60422H16.5545C14.5826 4.60422 12.3893 5.43357 12.3893 8.29193C12.3989 9.28788 12.3893 10.2417 12.3893 11.3152H10.1081V14.9453H12.4599V25.3957H16.7815V14.8763H19.6339L19.8919 11.305H16.707C16.707 11.305 16.7141 9.71634 16.707 9.25498C16.707 8.12542 17.8823 8.19011 17.953 8.19011C18.5123 8.19011 19.5998 8.19174 19.879 8.19011V4.60422H19.8774Z" fill="white"/>
</g>
<defs>
<clipPath id="clip0_3_51">
<rect width="30" height="30" fill="white"/>
</clipPath>
</defs>
</svg>
