<svg width="25" height="25" viewBox="0 0 30 30" fill="none" xmlns="http://www.w3.org/2000/svg">
<g clip-path="url(#clip0_3_46)">
<path d="M30 15.3324C30 14.1026 29.8979 13.2051 29.6769 12.2745H15.3061V17.8252H23.7414C23.5714 19.2046 22.6531 21.282 20.6122 22.6779L20.5836 22.8637L25.1274 26.3035L25.4422 26.3342C28.3333 23.725 30 19.8859 30 15.3324Z" fill="#4285F4"/>
<path d="M15.3061 29.9571C19.4387 29.9571 22.9081 28.6275 25.4422 26.3342L20.6122 22.6779C19.3197 23.5587 17.585 24.1736 15.3061 24.1736C11.2585 24.1736 7.82318 21.5645 6.59857 17.9582L6.41908 17.9731L1.6944 21.5462L1.63261 21.714C4.1496 26.6 9.31968 29.9571 15.3061 29.9571Z" fill="#34A853"/>
<path d="M6.59857 17.9582C6.27545 17.0275 6.08845 16.0303 6.08845 15C6.08845 13.9695 6.27545 12.9724 6.58157 12.0418L6.57301 11.8436L1.78913 8.21307L1.63261 8.28583C0.595245 10.3134 0 12.5902 0 15C0 17.4097 0.595245 19.6865 1.63261 21.714L6.59857 17.9582Z" fill="#FBBC05"/>
<path d="M15.3061 5.82624C18.1802 5.82624 20.119 7.03942 21.2245 8.05325L25.5442 3.9317C22.8912 1.52195 19.4387 0.0428467 15.3061 0.0428467C9.31968 0.0428467 4.1496 3.39987 1.63261 8.28583L6.58157 12.0418C7.82318 8.43546 11.2585 5.82624 15.3061 5.82624Z" fill="#EB4335"/>
</g>
<defs>
<clipPath id="clip0_3_46">
<rect width="30" height="30" fill="white"/>
</clipPath>
</defs>
</svg>
