<svg width="20" height="20" viewBox="0 0 20 20" fill="none" xmlns="http://www.w3.org/2000/svg">
<circle cx="10" cy="10" r="9.5" fill="white" stroke="black"/>
<path d="M8.8 6.8V6M11.2 13.2V14M6.8 8.8H6M13.2 11.2H14M7.16568 7.16568L6.6 6.6M12.8343 12.8343L13.4 13.4M10 12.2628L9.15147 13.1113C8.52663 13.7361 7.51357 13.7361 6.88873 13.1113C6.26389 12.4864 6.26389 11.4734 6.88873 10.8485L7.73726 10M12.2628 10L13.1113 9.15147C13.7361 8.52663 13.7361 7.51357 13.1113 6.88873C12.4864 6.26389 11.4734 6.26389 10.8485 6.88873L10 7.73726" stroke="black" stroke-width="0.937709" stroke-linecap="round" stroke-linejoin="round"/>
</svg>
