<svg width="120" height="102" viewBox="0 0 120 102" fill="none" xmlns="http://www.w3.org/2000/svg">
<path d="M41.2998 31.1819V22.7819C41.2998 14.3819 47.9998 7.48193 56.4998 7.48193C64.7998 7.48193 71.6998 14.2819 71.6998 22.7819V31.1819" stroke="#D6DCE8" stroke-width="1.8941" stroke-miterlimit="10" stroke-linecap="round" stroke-linejoin="round"/>
<path d="M93.2998 93.5819C93.6998 93.3819 93.7998 93.1819 94.1998 93.0819" stroke="#FF78B7" stroke-width="0.6123" stroke-linecap="round" stroke-linejoin="round"/>
<path d="M1 100.682H5.4" stroke="#D6DCE8" stroke-width="2" stroke-miterlimit="10" stroke-linecap="round" stroke-linejoin="round"/>
<path d="M100.9 15.282H15.7V100.682H100.9V15.282Z" fill="#F1F3F9" stroke="#D6DCE8" stroke-width="2" stroke-miterlimit="10"/>
<path d="M101.1 15.282H39.3999V100.682H101V15.282H101.1Z" fill="white" stroke="#D6DCE8" stroke-width="2" stroke-miterlimit="10"/>
<path d="M109.516 88.0369C110.906 88.0369 112.032 86.9093 112.032 85.5184C112.032 84.1275 110.906 83 109.516 83C108.127 83 107 84.1275 107 85.5184C107 86.9093 108.127 88.0369 109.516 88.0369Z" fill="#EAEEF9"/>
<path d="M5.51618 41.0369C6.90582 41.0369 8.03235 39.9093 8.03235 38.5184C8.03235 37.1275 6.90582 36 5.51618 36C4.12653 36 3 37.1275 3 38.5184C3 39.9093 4.12653 41.0369 5.51618 41.0369Z" fill="#EAEEF9"/>
<path d="M27.5 15.282H15.7V100.682H27.5V15.282Z" fill="#F1F3F9" stroke="#D6DCE8" stroke-width="2" stroke-miterlimit="10"/>
<path d="M39.4 100.682H15.7V100.482L27.7 88.5819L39.4 100.682Z" fill="#F1F3F9" stroke="#D6DCE8" stroke-width="2" stroke-miterlimit="10"/>
<path d="M39.4 100.682H15.7V100.482L27.7 88.5819L39.4 100.682Z" fill="#D6DCE8"/>
<path d="M89 16C89 43.3367 89 86 89 86M77 16V86" stroke="#D6DCE8" stroke-opacity="0.4" stroke-width="2" stroke-miterlimit="10" stroke-linecap="round" stroke-dasharray="4 4"/>
<path opacity="0.4" d="M28 89H85" stroke="#D6DCE8" stroke-width="2" stroke-miterlimit="10" stroke-linecap="round" stroke-linejoin="round" stroke-dasharray="4 4"/>
<path d="M77 100.482V100.682H100.7L89 88.5819" stroke="#D6DCE8" stroke-opacity="0.4" stroke-width="2" stroke-miterlimit="10" stroke-linecap="round" stroke-dasharray="4 4"/>
<path d="M54.3002 34.2819C56.0002 34.2819 57.4002 32.8819 57.4002 31.1819C57.4002 29.4819 56.0002 28.0819 54.3002 28.0819C52.6002 28.0819 51.2002 29.4819 51.2002 31.1819C51.2002 32.8819 52.6002 34.2819 54.3002 34.2819Z" fill="#D6DCE8"/>
<path d="M84.7001 34.2819C86.4001 34.2819 87.8001 32.8819 87.8001 31.1819C87.8001 29.4819 86.4001 28.0819 84.7001 28.0819C83.0001 28.0819 81.6001 29.4819 81.6001 31.1819C81.7001 32.8819 83.0001 34.2819 84.7001 34.2819Z" fill="#D6DCE8"/>
<path d="M10.8 100.682H118.1" stroke="#D6DCE8" stroke-width="2" stroke-miterlimit="10" stroke-linecap="round" stroke-linejoin="round"/>
<path d="M54.2998 31.1819V22.7819C54.2998 14.3819 60.9998 7.48193 69.4998 7.48193C77.7998 7.48193 84.6998 14.2819 84.6998 22.7819V31.1819" stroke="#D6DCE8" stroke-width="1.8941" stroke-miterlimit="10" stroke-linecap="round" stroke-linejoin="round"/>
<path d="M36 11.6238H28.65V4H22.35V11.6238H15V18.3762H22.35V26H28.65V18.3762H36V11.6238Z" fill="#AAB2C5"/>
<path d="M41.5773 38.4509L37.0907 39.2082L36.3409 34.7661L32.4953 35.4152L33.2451 39.8573L28.7586 40.6147L29.4228 44.5491L33.9093 43.7918L34.6591 48.2339L38.5047 47.5848L37.7549 43.1426L42.2414 42.3853L41.5773 38.4509Z" fill="#AAB2C5"/>
<path d="M63.2068 56.5449L60.5273 55.192L61.8801 52.5125L59.5834 51.3529L58.2305 54.0324L55.5509 52.6796L54.3527 55.0529L57.0322 56.4057L55.6794 59.0853L57.9761 60.2449L59.329 57.5653L62.0086 58.9182L63.2068 56.5449Z" fill="#AAB2C5"/>
<path d="M94.3937 4.04158C96.5532 2.65729 99.1003 1.88208 101.814 1.88208C109.233 1.88208 115.269 7.86225 115.269 15.2821C115.269 22.7019 109.233 28.6821 101.814 28.6821C94.3937 28.6821 88.3581 22.7019 88.3581 15.2821C88.2474 10.5755 90.6837 6.47795 94.3937 4.04158Z" fill="#EEF2F9" stroke="#AAB2C5" stroke-width="2" stroke-miterlimit="10"/>
<path d="M101.812 21.282C99.1093 21.282 96.812 18.855 96.812 15.2146C96.812 11.5741 99.1093 9.28198 101.812 9.28198C104.515 9.28198 106.812 11.5741 106.812 15.2146C106.812 18.855 104.515 21.282 101.812 21.282ZM101.812 18.4505C102.758 18.4505 103.704 17.5067 103.704 15.2146C103.839 13.0573 102.758 11.9786 101.812 11.9786C100.866 11.9786 99.9201 13.0573 99.9201 15.2146C99.9201 17.5067 100.866 18.4505 101.812 18.4505Z" fill="#AAB2C5"/>
</svg>
